<svg width="46" height="46" viewBox="0 0 46 46" fill="none" xmlns="http://www.w3.org/2000/svg">
<rect width="46" height="46" fill="#E5E5E5"/>
<rect width="15571" height="16197" transform="translate(-11549 -937)" fill="white"/>
<rect x="-9" y="-9" width="64" height="64" rx="20" fill="url(#paint0_linear_0_1)"/>
<g filter="url(#filter0_d_0_1)">
<rect x="0.75" y="0.75" width="44.5" height="44.5" rx="19.25" stroke="#F6F6F6" stroke-width="1.5"/>
<path d="M22.9996 33.5415V30.5122" stroke="#F6F6F6" stroke-width="1.5" stroke-linecap="round" stroke-linejoin="round"/>
<path fill-rule="evenodd" clip-rule="evenodd" d="M22.9998 26.6877V26.6877C20.85 26.6877 19.1069 24.9376 19.1069 22.7778V18.2859C19.1069 16.1262 20.85 14.375 22.9998 14.375C25.1505 14.375 26.8926 16.1262 26.8926 18.2859V22.7778C26.8926 24.9376 25.1505 26.6877 22.9998 26.6877Z" stroke="#F6F6F6" stroke-width="1.5" stroke-linecap="round" stroke-linejoin="round"/>
<path d="M30.6666 22.8091C30.6666 27.063 27.2346 30.5119 22.9994 30.5119C18.7652 30.5119 15.3333 27.063 15.3333 22.8091" stroke="#F6F6F6" stroke-width="1.5" stroke-linecap="round" stroke-linejoin="round"/>
</g>
<defs>
<filter id="filter0_d_0_1" x="-11" y="-3" width="68" height="68" filterUnits="userSpaceOnUse" color-interpolation-filters="sRGB">
<feFlood flood-opacity="0" result="BackgroundImageFix"/>
<feColorMatrix in="SourceAlpha" type="matrix" values="0 0 0 0 0 0 0 0 0 0 0 0 0 0 0 0 0 0 127 0" result="hardAlpha"/>
<feOffset dy="8"/>
<feGaussianBlur stdDeviation="5.5"/>
<feColorMatrix type="matrix" values="0 0 0 0 0 0 0 0 0 0 0 0 0 0 0 0 0 0 0.08 0"/>
<feBlend mode="normal" in2="BackgroundImageFix" result="effect1_dropShadow_0_1"/>
<feBlend mode="normal" in="SourceGraphic" in2="effect1_dropShadow_0_1" result="shape"/>
</filter>
<linearGradient id="paint0_linear_0_1" x1="-9" y1="-9" x2="55" y2="55" gradientUnits="userSpaceOnUse">
<stop stop-color="#9381FF"/>
<stop offset="0.598958" stop-color="#CB89D6"/>
<stop offset="1" stop-color="#FE90B0"/>
</linearGradient>
</defs>
</svg>
