<svg width="80" height="161" viewBox="0 0 80 161" fill="none" xmlns="http://www.w3.org/2000/svg">
<path fill-rule="evenodd" clip-rule="evenodd" d="M42 79.9509C63.1622 78.9088 80 61.4207 80 40C80 17.9086 62.0914 0 40 0C17.9086 0 0 17.9086 0 40C0 61.4207 16.8378 78.9088 38 79.9509V100.5V114.643H37C25.9543 114.643 17 123.597 17 134.643V140.643C17 151.689 25.9543 160.643 37 160.643H43C54.0457 160.643 63 151.689 63 140.643V134.643C63 123.597 54.0457 114.643 43 114.643H42V79.9509ZM30.4 24C27.749 24 25.6 26.149 25.6 28.8V51.2C25.6 53.851 27.749 56 30.4 56C33.051 56 35.2 53.851 35.2 51.2V28.8C35.2 26.149 33.051 24 30.4 24ZM44.8 28.8C44.8 26.149 46.949 24 49.6 24C52.251 24 54.4 26.149 54.4 28.8V51.2C54.4 53.851 52.251 56 49.6 56C46.949 56 44.8 53.851 44.8 51.2V28.8Z" fill="#F1B488"/>
</svg>
